#!OML:ASF E:\Style6\Style6.ASF
:FULLY-SPECIFIED
:DEGREES
3646
root -0.586212 18.0883 0.518089 23.7704 -7.79869 6.43271
lowerback 12.8695 -1.21 9.86359
upperback -0.529102 0.540024 8.33677
thorax -7.86928 0.0364195 3.3306
lowerneck 3.24838 4.70192 5.26463
upperneck -12.3576 4.77816 -18.6137
head -3.52459 3.10355 -6.83667
rclavicle 2.38542e-014 -4.13472e-014
rhumerus -25.1684 -2.69385 -42.1196
rradius 55.4195
rwrist -27.5661
rhand 4.89317 7.15773
rfingers 7.12502
rthumb 30.2681 -20.3807
lclavicle 2.38542e-014 -4.13472e-014
lhumerus -42.9101 -26.1082 73.8291
lradius 58.4526
lwrist 44.098
lhand 8.16905 15.9871
lfingers 7.12502
lthumb 33.3877 42.9047
rfemur -40.1766 8.80867 9.82224
rtibia 29.1656
rfoot -8.9624 -15.2902
rtoes -4.82629
lfemur -18.8376 -0.41234 -21.9405
ltibia 3.18055e-014
lfoot 0.22783 11.8576
ltoes -0.493895
3647
root -0.583652 18.0914 0.522319 23.7275 -7.92879 6.43381
lowerback 12.7786 -1.23623 9.89148
upperback -0.519196 0.495413 8.37124
thorax -7.80756 0.0158219 3.35863
lowerneck 3.43884 4.73672 5.41304
upperneck -12.4888 4.80498 -18.7898
head -3.58219 3.13291 -6.93144
rclavicle 1.59028e-015 3.18055e-015
rhumerus -25.1802 -2.77703 -42.0507
rradius 55.4063
rwrist -27.4844
rhand 5.14602 7.10345
rfingers 7.12502
rthumb 30.5092 -20.3904
lclavicle 1.59028e-015 3.18055e-015
lhumerus -42.982 -26.1601 73.857
lradius 58.4558
lwrist 44.1527
lhand 8.10945 16.0927
lfingers 7.12502
lthumb 33.3311 43.0225
rfemur -40.1558 8.98583 9.74769
rtibia 29.1808
rfoot -8.83205 -15.4445
rtoes -6.12817
lfemur -18.7664 -0.298122 -22.0075
ltibia 7.87187e-014
lfoot 0.255034 11.8052
ltoes -1.24292
3648
root -0.580715 18.092 0.52591 23.6572 -8.10801 6.54573
lowerback 12.6453 -1.24121 9.79099
upperback -0.465812 0.446266 8.39913
thorax -7.67368 0.000248399 3.44724
lowerneck 3.59395 4.75911 5.37335
upperneck -12.6419 4.80949 -18.8288
head -3.65407 3.15217 -6.94897
rclavicle 7.95139e-015 7.95139e-014
rhumerus -25.1578 -2.84269 -41.9392
rradius 55.3706
rwrist -27.3696
rhand 5.2614 7.14283
rfingers 7.12502
rthumb 30.6193 -20.3305
lclavicle 7.95139e-015 7.95139e-014
lhumerus -42.9943 -26.0883 73.8882
lradius 58.4404
lwrist 44.0746
lhand 8.09709 15.9583
lfingers 7.12502
lthumb 33.3193 42.8905
rfemur -40.1274 9.1413 9.53276
rtibia 29.19
rfoot -8.82397 -15.4785
rtoes -6.42952
lfemur -18.6858 -0.188963 -22.2097
ltibia 0
lfoot 0.476006 11.7007
ltoes -2.82091
3649
root -0.57692 18.09 0.52775 23.5912 -8.30465 6.68768
lowerback 12.4839 -1.2122 9.65976
upperback -0.376792 0.426357 8.39771
thorax -7.48383 0.000794965 3.51205
lowerneck 3.68194 4.77629 5.32446
upperneck -12.7891 4.81408 -18.7952
head -3.71517 3.16499 -6.93872
rclavicle 1.27222e-014 1.36764e-013
rhumerus -25.1608 -2.9791 -41.8614
rradius 55.3471
rwrist -27.3635
rhand 5.18589 7.16381
rfingers 7.12502
rthumb 30.5473 -20.323
lclavicle 1.27222e-014 1.36764e-013
lhumerus -42.8736 -26.0996 73.8618
lradius 58.413
lwrist 44.0157
lhand 7.95546 15.9255
lfingers 7.12502
lthumb 33.1847 42.8865
rfemur -40.1147 9.3656 9.22829
rtibia 29.1967
rfoot -9.05283 -15.4771
rtoes -4.76789
lfemur -18.6047 -0.076462 -22.4477
ltibia -7.95139e-015
lfoot 0.402295 11.6875
ltoes -2.50865
3650
root -0.574138 18.0923 0.53001 23.5563 -8.48805 6.67652
lowerback 12.3611 -1.16882 9.64424
upperback -0.32104 0.456752 8.44759
thorax -7.35302 0.0201632 3.5629
lowerneck 3.82203 4.80157 5.35508
upperneck -12.95 4.8246 -18.8663
head -3.78253 3.18554 -6.97894
rclavicle 4.77083e-015 4.45278e-014
rhumerus -25.2196 -3.095 -41.7154
rradius 55.3391
rwrist -27.4089
rhand 5.20715 7.16311
rfingers 7.12502
rthumb 30.5675 -20.3199
lclavicle 4.77083e-015 4.45278e-014
lhumerus -42.7501 -26.1633 73.8922
lradius 58.3572
lwrist 43.9715
lhand 7.8523 16.068
lfingers 7.12502
lthumb 33.0866 43.0499
rfemur -40.1126 9.57829 9.13221
rtibia 29.1862
rfoot -9.06538 -15.5092
rtoes -4.87596
lfemur -18.5445 0.0912562 -22.5253
ltibia -7.15625e-015
lfoot 0.365309 11.6701
ltoes -2.69786
3651
root -0.570194 18.0952 0.534591 23.5186 -8.64288 6.66018
lowerback 12.2655 -1.15155 9.6944
upperback -0.304891 0.471411 8.49151
thorax -7.28122 0.0275966 3.5769
lowerneck 3.99602 4.819 5.48215
upperneck -13.095 4.82388 -19.041
head -3.84571 3.20232 -7.07025
rclavicle 7.95139e-015 6.99722e-014
rhumerus -25.2936 -3.16442 -41.5517
rradius 55.2971
rwrist -27.397
rhand 5.23386 7.18346
rfingers 7.12502
rthumb 30.593 -20.2948
lclavicle 7.95139e-015 6.99722e-014
lhumerus -42.7613 -26.2484 73.9741
lradius 58.3365
lwrist 43.964
lhand 7.70014 16.1573
lfingers 7.12502
lthumb 32.9419 43.1698
rfemur -40.0601 9.69733 9.10081
rtibia 29.1236
rfoot -8.88931 -15.5948
rtoes -5.90072
lfemur -18.4698 0.234895 -22.587
ltibia 3.26007e-014
lfoot 0.403393 11.6012
ltoes -3.18165
3652
root -0.565584 18.0983 0.537941 23.4683 -8.7535 6.62699
lowerback 12.2017 -1.15534 9.80144
upperback -0.302104 0.47266 8.52578
thorax -7.24208 0.0254485 3.5532
lowerneck 4.23282 4.82829 5.58105
upperneck -13.2626 4.81262 -19.1613
head -3.93108 3.21614 -7.14245
rclavicle -6.36111e-015 8.5875e-014
rhumerus -25.3998 -3.23081 -41.4332
rradius 55.2453
rwrist -27.3345
rhand 5.1754 7.36584
rfingers 7.12502
rthumb 30.5373 -20.1228
lclavicle -6.36111e-015 8.5875e-014
lhumerus -42.8455 -26.3645 74.0321
lradius 58.3623
lwrist 43.8827
lhand 7.70799 16.1805
lfingers 7.12502
lthumb 32.9493 43.1914
rfemur -39.9488 9.88006 9.05032
rtibia 28.996
rfoot -8.91042 -15.6773
rtoes -5.89326
lfemur -18.388 0.345797 -22.6148
ltibia 3.33958e-014
lfoot 0.468587 11.5328
ltoes -3.70407
3653
root -0.559662 18.1015 0.539485 23.388 -8.90969 6.5319
lowerback 12.1693 -1.15204 9.9289
upperback -0.250466 0.485593 8.57981
thorax -7.1676 0.0299047 3.53657
lowerneck 4.51631 4.8386 5.53646
upperneck -13.5249 4.78897 -19.1694
head -4.06346 3.23056 -7.15907
rclavicle -1.74931e-014 0
rhumerus -25.4707 -3.26478 -41.3372
rradius 55.2654
rwrist -27.3907
rhand 5.16717 7.39322
rfingers 7.12502
rthumb 30.5294 -20.0969
lclavicle -1.74931e-014 0
lhumerus -42.8784 -26.391 74.0471
lradius 58.3836
lwrist 43.7838
lhand 7.9318 16.2159
lfingers 7.12502
lthumb 33.1622 43.1818
rfemur -39.8227 10.162 9.02858
rtibia 28.8686
rfoot -8.96693 -15.7531
rtoes -5.08394
lfemur -18.2661 0.525095 -22.6029
ltibia 1.82882e-014
lfoot 0.427326 11.503
ltoes -3.84945
3654
root -0.55348 18.1014 0.538855 23.3009 -9.08469 6.32684
lowerback 12.1237 -1.13805 10.153
upperback -0.126984 0.512768 8.62336
thorax -7.0062 0.0405584 3.44905
lowerneck 4.66751 4.83456 5.5867
upperneck -13.7892 4.75233 -19.1837
head -4.17118 3.22801 -7.18912
rclavicle 2.70347e-014 -6.99722e-014
rhumerus -25.4436 -3.52469 -41.3057
rradius 55.2428
rwrist -27.2327
rhand 5.25623 7.32724
rfingers 7.12502
rthumb 30.6143 -20.147
lclavicle 2.70347e-014 -6.99722e-014
lhumerus -42.8204 -26.4153 73.9923
lradius 58.4007
lwrist 43.7631
lhand 7.8944 16.2255
lfingers 7.12502
lthumb 33.1266 43.1989
rfemur -39.7159 10.4847 9.12872
rtibia 28.7557
rfoot -8.93186 -15.8157
rtoes -4.75727
lfemur -18.1426 0.774444 -22.4769
ltibia -2.62396e-014
lfoot 0.364467 11.5046
ltoes -3.61351
3655
root -0.546527 18.0997 0.538283 23.2514 -9.22147 6.25023
lowerback 12.0502 -1.13628 10.2921
upperback -0.0565208 0.513487 8.65386
thorax -6.88733 0.0400147 3.40057
lowerneck 4.79629 4.78771 5.53501
upperneck -14.0896 4.65239 -19.0877
head -4.30157 3.19271 -7.16484
rclavicle -2.70347e-014 1.17681e-013
rhumerus -25.4522 -3.70745 -41.235
rradius 55.2352
rwrist -27.1237
rhand 5.2794 7.31979
rfingers 7.12502
rthumb 30.6364 -20.1503
lclavicle -2.70347e-014 1.17681e-013
lhumerus -42.8074 -26.4385 74.0243
lradius 58.4013
lwrist 43.7515
lhand 7.81393 16.1917
lfingers 7.12502
lthumb 33.0501 43.1813
rfemur -39.6703 10.6587 9.12972
rtibia 28.6821
rfoot -8.86346 -15.8673
rtoes -5.13775
lfemur -18.0911 0.926736 -22.4745
ltibia 7.15625e-015
lfoot 0.450082 11.5162
ltoes -4.02843
3656
root -0.54035 18.0992 0.54004 23.1936 -9.39382 6.30234
lowerback 12.0042 -1.1219 10.2489
upperback -0.0499413 0.520008 8.70011
thorax -6.85477 0.0460393 3.47218
lowerneck 5.05414 4.70077 5.3105
upperneck -14.4541 4.48366 -18.8772
head -4.49315 3.13334 -7.07908
rclavicle 1.90833e-014 9.54166e-015
rhumerus -25.5083 -3.71099 -41.0668
rradius 55.2024
rwrist -27.1429
rhand 5.28267 7.28015
rfingers 7.12502
rthumb 30.6396 -20.1894
lclavicle 1.90833e-014 9.54166e-015
lhumerus -42.8829 -26.489 74.1741
lradius 58.3368
lwrist 43.7542
lhand 7.83054 15.967
lfingers 7.12502
lthumb 33.0659 42.9533
rfemur -39.6482 10.8232 8.9768
rtibia 28.6576
rfoot -8.75006 -15.9526
rtoes -6.07097
lfemur -18.0301 1.0537 -22.6205
ltibia 3.33958e-014
lfoot 0.549485 11.4763
ltoes -4.98856
3657
root -0.535083 18.0998 0.541067 23.135 -9.59326 6.42105
lowerback 11.9201 -1.104 10.1374
upperback -0.0348894 0.512386 8.71858
thorax -6.79116 0.0479705 3.55183
lowerneck 5.37766 4.7198 5.33235
upperneck -14.696 4.47261 -18.9623
head -4.62142 3.15596 -7.1344
rclavicle -1.11319e-014 -6.04305e-014
rhumerus -25.5619 -3.73904 -40.9276
rradius 55.1295
rwrist -27.1515
rhand 5.23666 7.26473
rfingers 7.12502
rthumb 30.5957 -20.213
lclavicle -1.11319e-014 -6.04305e-014
lhumerus -42.9248 -26.5484 74.2532
lradius 58.2806
lwrist 43.8051
lhand 8.05054 15.8408
lfingers 7.12502
lthumb 33.2751 42.7826
rfemur -39.6658 10.9803 8.73436
rtibia 28.6786
rfoot -8.7995 -15.961
rtoes -5.59208
lfemur -17.9744 1.17775 -22.8417
ltibia 3.89618e-014
lfoot 0.573812 11.4753
ltoes -5.59553
3658
root -0.529624 18.1 0.542935 23.0568 -9.78695 6.52622
lowerback 11.8126 -1.11064 10.0575
upperback 0.0115439 0.468047 8.72742
thorax -6.68018 0.0323214 3.60802
lowerneck 5.68362 4.83119 5.60251
upperneck -14.7997 4.60376 -19.3334
head -4.66842 3.24816 -7.32493
rclavicle 1.74931e-014 -3.18055e-015
rhumerus -25.5475 -3.76398 -40.8501
rradius 54.9846
rwrist -27.1744
rhand 5.18352 7.14256
rfingers 7.12502
rthumb 30.545 -20.3446
lclavicle 1.74931e-014 -3.18055e-015
lhumerus -42.9761 -26.4927 74.2866
lradius 58.2569
lwrist 43.8058
lhand 8.12413 15.8478
lfingers 7.12502
lthumb 33.345 42.7746
rfemur -39.6432 11.1128 8.52778
rtibia 28.688
rfoot -8.83107 -15.951
rtoes -5.49702
lfemur -17.8934 1.30359 -23.0469
ltibia 4.37326e-014
lfoot 0.539373 11.4634
ltoes -5.85781
3659
root -0.523042 18.1007 0.54632 22.9873 -9.94972 6.53896
lowerback 11.6519 -1.11876 10.1017
upperback 0.125363 0.421047 8.74916
thorax -6.46552 0.0146394 3.60598
lowerneck 5.84194 4.85684 5.64421
upperneck -14.9993 4.61159 -19.3963
head -4.75203 3.26874 -7.36946
rclavicle -3.18055e-015 2.22639e-014
rhumerus -25.4893 -3.9281 -40.7926
rradius 54.9097
rwrist -27.1569
rhand 5.20177 7.09009
rfingers 7.12502
rthumb 30.5624 -20.3939
lclavicle -3.18055e-015 2.22639e-014
lhumerus -42.9065 -26.4352 74.2657
lradius 58.272
lwrist 43.8855
lhand 8.14509 16.0016
lfingers 7.12502
lthumb 33.365 42.9241
rfemur -39.5985 11.2135 8.45244
rtibia 28.6772
rfoot -8.81676 -15.9304
rtoes -5.73211
lfemur -17.7968 1.44092 -23.1472
ltibia -4.37326e-014
lfoot 0.499658 11.4336
ltoes -5.75683
3660
root -0.517662 18.102 0.55025 22.9172 -10.1107 6.4721
lowerback 11.4875 -1.09523 10.1704
upperback 0.26154 0.417148 8.81202
thorax -6.22478 0.018623 3.62702
lowerneck 5.83594 4.80387 5.43095
upperneck -15.1339 4.52609 -19.1363
head -4.81892 3.22578 -7.24978
rclavicle -2.54444e-014 6.36111e-014
rhumerus -25.4225 -4.07108 -40.6788
rradius 54.8638
rwrist -27.1666
rhand 5.03305 7.01424
rfingers 7.12502
rthumb 30.4015 -20.4996
lclavicle -2.54444e-014 6.36111e-014
lhumerus -42.7434 -26.4521 74.2632
lradius 58.2622
lwrist 43.9819
lhand 8.05863 16.1934
lfingers 7.12502
lthumb 33.2828 43.1336
rfemur -39.5282 11.3603 8.4607
rtibia 28.6353
rfoot -8.67043 -15.9487
rtoes -6.41489
lfemur -17.6876 1.61132 -23.166
ltibia 3.89618e-014
lfoot 0.517183 11.4026
ltoes -6.00399
